<svg width="1224" height="1224" viewBox="0 0 1224 1224" fill="none" xmlns="http://www.w3.org/2000/svg">
<g opacity="0.2">
<path d="M612 122.4C341.618 122.4 122.4 341.618 122.4 612C122.4 841.418 280.378 1033.38 493.354 1086.5C491.069 1079.89 489.6 1072.22 489.6 1062.72V979.037C469.73 979.037 436.438 979.037 428.074 979.037C394.577 979.037 364.793 964.634 350.35 937.869C334.315 908.126 331.541 862.634 291.802 834.809C280.01 825.547 288.986 814.98 302.573 816.408C327.665 823.507 348.473 840.725 368.057 866.266C387.559 891.847 396.739 897.641 433.174 897.641C450.84 897.641 477.278 896.621 502.166 892.704C515.549 858.717 538.682 827.424 566.957 812.654C403.92 795.885 326.114 714.775 326.114 604.656C326.114 557.246 346.31 511.387 380.623 472.749C369.362 434.397 355.205 356.184 384.948 326.4C458.306 326.4 502.656 373.973 513.305 386.825C549.862 374.299 590.009 367.2 632.196 367.2C674.465 367.2 714.775 374.299 751.413 386.906C761.94 374.136 806.33 326.4 879.852 326.4C909.717 356.225 895.397 434.765 884.013 473.035C918.122 511.591 938.196 557.328 938.196 604.656C938.196 714.693 860.513 795.763 697.721 812.613C742.519 835.992 775.2 901.68 775.2 951.17V1062.72C775.2 1066.96 774.261 1070.02 773.772 1073.65C964.553 1006.78 1101.6 825.629 1101.6 612C1101.6 341.618 882.381 122.4 612 122.4Z" fill="white"/>
</g>
</svg>
