<svg width="36" height="35" viewBox="0 0 36 35" fill="none" xmlns="http://www.w3.org/2000/svg">
<path d="M18 3.5C10.2685 3.5 4 9.7685 4 17.5C4 24.0602 8.51733 29.5493 14.6073 31.0683C14.542 30.8793 14.5 30.66 14.5 30.3882V27.9953C13.9318 27.9953 12.9798 27.9953 12.7407 27.9953C11.7828 27.9953 10.9312 27.5835 10.5182 26.8182C10.0597 25.9677 9.98033 24.6668 8.844 23.8712C8.50683 23.6063 8.7635 23.3042 9.152 23.345C9.8695 23.548 10.4645 24.0403 11.0245 24.7707C11.5822 25.5022 11.8447 25.6678 12.8865 25.6678C13.3917 25.6678 14.1477 25.6387 14.8593 25.5267C15.242 24.5548 15.9035 23.66 16.712 23.2377C12.05 22.7582 9.82517 20.4388 9.82517 17.29C9.82517 15.9343 10.4027 14.623 11.3838 13.5182C11.0618 12.4215 10.657 10.185 11.5075 9.33333C13.6052 9.33333 14.8733 10.6937 15.1778 11.0612C16.2232 10.703 17.3712 10.5 18.5775 10.5C19.7862 10.5 20.9388 10.703 21.9865 11.0635C22.2875 10.6983 23.5568 9.33333 25.6592 9.33333C26.5132 10.1862 26.1037 12.432 25.7782 13.5263C26.7535 14.6288 27.3275 15.9367 27.3275 17.29C27.3275 20.4365 25.1062 22.7547 20.4512 23.2365C21.7322 23.905 22.6667 25.7833 22.6667 27.1985V30.3882C22.6667 30.5095 22.6398 30.597 22.6258 30.7008C28.0812 28.7887 32 23.6087 32 17.5C32 9.7685 25.7315 3.5 18 3.5Z" fill="white"/>
</svg>
